<svg id="visual" viewBox="0 0 960 540" width="960" height="540" xmlns="http://www.w3.org/2000/svg" xmlns:xlink="http://www.w3.org/1999/xlink" version="1.1"><g stroke-width="1" stroke-linejoin="bevel"><path d="M496.3 298L464.7 373L522.3 393Z" fill="#0072d4" stroke="#0072d4"></path><path d="M464.7 373L447.7 454L522.3 393Z" fill="#005fe6" stroke="#005fe6"></path><path d="M496.3 298L421.7 236L464.7 373Z" fill="#0007f1" stroke="#0007f1"></path><path d="M464.7 373L318 379L447.7 454Z" fill="#0035f1" stroke="#0035f1"></path><path d="M447.7 454L549.3 488L522.3 393Z" fill="#0025f1" stroke="#0025f1"></path><path d="M522.3 393L667 350L496.3 298Z" fill="#0072d4" stroke="#0072d4"></path><path d="M658 425L667 350L522.3 393Z" fill="#0042ef" stroke="#0042ef"></path><path d="M496.3 298L564.3 189L421.7 236Z" fill="#0035f1" stroke="#0035f1"></path><path d="M667 350L632 242L496.3 298Z" fill="#0056ea" stroke="#0056ea"></path><path d="M632 242L564.3 189L496.3 298Z" fill="#0056ea" stroke="#0056ea"></path><path d="M549.3 488L658 425L522.3 393Z" fill="#0072d4" stroke="#0072d4"></path><path d="M564.3 189L419.7 179L421.7 236Z" fill="#0007f1" stroke="#0007f1"></path><path d="M295 236L318 379L421.7 236Z" fill="#0042ef" stroke="#0042ef"></path><path d="M421.7 236L318 379L464.7 373Z" fill="#0042ef" stroke="#0042ef"></path><path d="M445.7 540L546.3 540L549.3 488Z" fill="#0025f1" stroke="#0025f1"></path><path d="M549.3 488L679 540L658 425Z" fill="#0072d4" stroke="#0072d4"></path><path d="M445.7 540L549.3 488L447.7 454Z" fill="#006cdb" stroke="#006cdb"></path><path d="M332 540L445.7 540L447.7 454Z" fill="#0977cc" stroke="#0977cc"></path><path d="M755.7 424L719.7 331L667 350Z" fill="#0977cc" stroke="#0977cc"></path><path d="M667 350L719.7 331L632 242Z" fill="#0977cc" stroke="#0977cc"></path><path d="M419.7 179L342 194L421.7 236Z" fill="#0056ea" stroke="#0056ea"></path><path d="M715.7 170L629 151L632 242Z" fill="#006cdb" stroke="#006cdb"></path><path d="M632 242L629 151L564.3 189Z" fill="#004ced" stroke="#004ced"></path><path d="M564.3 189L552.3 105L419.7 179Z" fill="#0066e1" stroke="#0066e1"></path><path d="M342 194L295 236L421.7 236Z" fill="#0035f1" stroke="#0035f1"></path><path d="M240.3 328L287 457L318 379Z" fill="#0072d4" stroke="#0072d4"></path><path d="M318 379L287 457L447.7 454Z" fill="#0035f1" stroke="#0035f1"></path><path d="M629 151L552.3 105L564.3 189Z" fill="#0042ef" stroke="#0042ef"></path><path d="M419.7 179L405.7 92L342 194Z" fill="#004ced" stroke="#004ced"></path><path d="M719.7 331L747.7 272L632 242Z" fill="#0025f1" stroke="#0025f1"></path><path d="M546.3 540L679 540L549.3 488Z" fill="#0035f1" stroke="#0035f1"></path><path d="M658 425L755.7 424L667 350Z" fill="#0056ea" stroke="#0056ea"></path><path d="M719.7 331L861.3 354L747.7 272Z" fill="#0072d4" stroke="#0072d4"></path><path d="M287 457L332 540L447.7 454Z" fill="#0056ea" stroke="#0056ea"></path><path d="M679 540L755.7 424L658 425Z" fill="#0042ef" stroke="#0042ef"></path><path d="M295 236L240.3 328L318 379Z" fill="#004ced" stroke="#004ced"></path><path d="M552.3 105L405.7 92L419.7 179Z" fill="#005fe6" stroke="#005fe6"></path><path d="M342 194L233.3 122L295 236Z" fill="#0035f1" stroke="#0035f1"></path><path d="M747.7 272L715.7 170L632 242Z" fill="#005fe6" stroke="#005fe6"></path><path d="M629 151L607 89L552.3 105Z" fill="#0007f1" stroke="#0007f1"></path><path d="M734.7 126L607 89L629 151Z" fill="#006cdb" stroke="#006cdb"></path><path d="M552.3 105L416.7 0L405.7 92Z" fill="#005fe6" stroke="#005fe6"></path><path d="M679 540L745.7 540L755.7 424Z" fill="#0066e1" stroke="#0066e1"></path><path d="M886.3 188L734.7 126L715.7 170Z" fill="#004ced" stroke="#004ced"></path><path d="M715.7 170L734.7 126L629 151Z" fill="#005fe6" stroke="#005fe6"></path><path d="M240.3 328L212.3 470L287 457Z" fill="#006cdb" stroke="#006cdb"></path><path d="M287 457L230.3 540L332 540Z" fill="#0066e1" stroke="#0066e1"></path><path d="M405.7 92L285 99L342 194Z" fill="#0066e1" stroke="#0066e1"></path><path d="M295 236L180.3 268L240.3 328Z" fill="#0072d4" stroke="#0072d4"></path><path d="M240.3 328L121.7 371L212.3 470Z" fill="#0042ef" stroke="#0042ef"></path><path d="M178.3 162L180.3 268L295 236Z" fill="#004ced" stroke="#004ced"></path><path d="M212.3 470L230.3 540L287 457Z" fill="#0025f1" stroke="#0025f1"></path><path d="M606 0L567.3 0L607 89Z" fill="#0042ef" stroke="#0042ef"></path><path d="M607 89L567.3 0L552.3 105Z" fill="#0042ef" stroke="#0042ef"></path><path d="M405.7 92L319 0L285 99Z" fill="#0042ef" stroke="#0042ef"></path><path d="M285 99L233.3 122L342 194Z" fill="#006cdb" stroke="#006cdb"></path><path d="M871.3 446L861.3 354L755.7 424Z" fill="#0035f1" stroke="#0035f1"></path><path d="M755.7 424L861.3 354L719.7 331Z" fill="#0035f1" stroke="#0035f1"></path><path d="M747.7 272L886.3 188L715.7 170Z" fill="#0977cc" stroke="#0977cc"></path><path d="M567.3 0L416.7 0L552.3 105Z" fill="#0066e1" stroke="#0066e1"></path><path d="M285 99L236.3 0L233.3 122Z" fill="#0042ef" stroke="#0042ef"></path><path d="M734.7 126L606 0L607 89Z" fill="#0025f1" stroke="#0025f1"></path><path d="M233.3 122L178.3 162L295 236Z" fill="#0025f1" stroke="#0025f1"></path><path d="M843.3 540L871.3 446L755.7 424Z" fill="#0056ea" stroke="#0056ea"></path><path d="M960 362L879.3 261L861.3 354Z" fill="#0056ea" stroke="#0056ea"></path><path d="M861.3 354L879.3 261L747.7 272Z" fill="#0007f1" stroke="#0007f1"></path><path d="M734.7 126L785.7 0L606 0Z" fill="#004ced" stroke="#004ced"></path><path d="M180.3 268L121.7 371L240.3 328Z" fill="#0977cc" stroke="#0977cc"></path><path d="M212.3 470L137.7 540L230.3 540Z" fill="#0042ef" stroke="#0042ef"></path><path d="M81.7 293L121.7 371L180.3 268Z" fill="#0035f1" stroke="#0035f1"></path><path d="M745.7 540L843.3 540L755.7 424Z" fill="#0066e1" stroke="#0066e1"></path><path d="M416.7 0L319 0L405.7 92Z" fill="#005fe6" stroke="#005fe6"></path><path d="M145.7 0L81.7 114L178.3 162Z" fill="#0072d4" stroke="#0072d4"></path><path d="M960 219L886.3 188L879.3 261Z" fill="#0056ea" stroke="#0056ea"></path><path d="M879.3 261L886.3 188L747.7 272Z" fill="#0007f1" stroke="#0007f1"></path><path d="M68.7 444L137.7 540L212.3 470Z" fill="#0035f1" stroke="#0035f1"></path><path d="M80.7 168L81.7 293L180.3 268Z" fill="#0007f1" stroke="#0007f1"></path><path d="M121.7 371L68.7 444L212.3 470Z" fill="#0066e1" stroke="#0066e1"></path><path d="M319 0L236.3 0L285 99Z" fill="#0066e1" stroke="#0066e1"></path><path d="M178.3 162L80.7 168L180.3 268Z" fill="#0035f1" stroke="#0035f1"></path><path d="M860.3 57L785.7 0L734.7 126Z" fill="#0035f1" stroke="#0035f1"></path><path d="M0 330L68.7 444L121.7 371Z" fill="#0072d4" stroke="#0072d4"></path><path d="M960 451L960 362L871.3 446Z" fill="#006cdb" stroke="#006cdb"></path><path d="M871.3 446L960 362L861.3 354Z" fill="#004ced" stroke="#004ced"></path><path d="M960 118L860.3 57L886.3 188Z" fill="#0066e1" stroke="#0066e1"></path><path d="M886.3 188L860.3 57L734.7 126Z" fill="#0007f1" stroke="#0007f1"></path><path d="M81.7 114L80.7 168L178.3 162Z" fill="#0066e1" stroke="#0066e1"></path><path d="M81.7 293L0 330L121.7 371Z" fill="#0977cc" stroke="#0977cc"></path><path d="M960 362L960 250L879.3 261Z" fill="#0977cc" stroke="#0977cc"></path><path d="M960 540L960 451L871.3 446Z" fill="#0066e1" stroke="#0066e1"></path><path d="M960 250L960 219L879.3 261Z" fill="#006cdb" stroke="#006cdb"></path><path d="M960 0L827.3 0L860.3 57Z" fill="#0025f1" stroke="#0025f1"></path><path d="M860.3 57L827.3 0L785.7 0Z" fill="#0066e1" stroke="#0066e1"></path><path d="M145.7 0L178.3 162L233.3 122Z" fill="#0056ea" stroke="#0056ea"></path><path d="M0 298L0 330L81.7 293Z" fill="#0007f1" stroke="#0007f1"></path><path d="M843.3 540L960 540L871.3 446Z" fill="#0977cc" stroke="#0977cc"></path><path d="M236.3 0L145.7 0L233.3 122Z" fill="#0056ea" stroke="#0056ea"></path><path d="M0 298L81.7 293L0 204Z" fill="#0042ef" stroke="#0042ef"></path><path d="M960 219L960 118L886.3 188Z" fill="#0072d4" stroke="#0072d4"></path><path d="M0 204L81.7 293L80.7 168Z" fill="#0977cc" stroke="#0977cc"></path><path d="M0 330L0 430L68.7 444Z" fill="#006cdb" stroke="#006cdb"></path><path d="M68.7 444L0 540L137.7 540Z" fill="#0072d4" stroke="#0072d4"></path><path d="M0 129L80.7 168L81.7 114Z" fill="#0007f1" stroke="#0007f1"></path><path d="M0 129L0 204L80.7 168Z" fill="#0035f1" stroke="#0035f1"></path><path d="M0 430L0 540L68.7 444Z" fill="#0042ef" stroke="#0042ef"></path><path d="M0 0L0 129L81.7 114Z" fill="#0066e1" stroke="#0066e1"></path><path d="M960 118L960 0L860.3 57Z" fill="#0025f1" stroke="#0025f1"></path><path d="M145.7 0L0 0L81.7 114Z" fill="#0072d4" stroke="#0072d4"></path></g></svg>